<svg width="30" height="50" xmlns="http://www.w3.org/2000/svg" data-name="Layer 1">
 <title>push-pin-blue</title>

 <g>
  <title>Layer 1</title>
  <g stroke="null" id="svg_3">
   <path stroke="null" class="cls-1" d="m27.78323,19.82674l-7.66502,-7.66719c-0.6516,-0.6516 -1.68765,0.02172 -1.99825,0.59513c-0.05213,0.09774 0.04127,0.18679 -0.04344,0.85143a10.04988,10.04988 0 0 1 -0.59079,2.45871l-3.40788,3.41005c-1.36185,1.35968 -3.30797,0.75586 -4.96738,-0.0695c-0.35187,-0.17376 -0.80147,-0.55821 -1.19026,-0.16942l-1.44221,1.44221a0.54083,0.54083 0 0 0 0,0.76672l12.11546,12.11546a0.543,0.543 0 0 0 0.76672,0l1.44221,-1.44221c0.38445,-0.38445 -0.10643,-0.88184 -0.30625,-1.30321c-0.73848,-1.52041 -1.40095,-3.56427 -0.16942,-4.7958l3.55992,-3.55992a18.27528,18.27528 0 0 1 2.46523,-0.55821c0.67115,-0.10643 0.75369,-0.02389 0.84926,-0.08688c0.58861,-0.37793 1.23804,-1.33579 0.5821,-1.99173" fill="#88bbff" fill-rule="evenodd" id="svg_1"/>
   <polygon stroke="null" class="cls-2" points="13.072204232215881,29.726752281188965 10.311584115028381,26.9661283493042 1.4563060998916626,38.16500377655029 1.8733364343643188,38.58202838897705 13.072204232215881,29.726752281188965 13.072204232215881,29.726752281188965 " fill-rule="evenodd" fill="#888888" id="svg_2"/>
  </g>
 </g>
</svg>