<svg width="30" height="50" xmlns="http://www.w3.org/2000/svg" data-name="Layer 1">
 <title>push-pin-blue</title>

 <g>
  <title>Layer 1</title>
  <path transform="rotate(-45 14.7569 21.7986)" stroke="null" class="cls-1" d="m25.35174,18.81984l-7.66502,-7.66719c-0.6516,-0.6516 -1.68765,0.02172 -1.99825,0.59513c-0.05213,0.09774 0.04127,0.18679 -0.04344,0.85143a10.04988,10.04988 0 0 1 -0.59079,2.45871l-3.40788,3.41005c-1.36185,1.35968 -3.30797,0.75586 -4.96738,-0.0695c-0.35187,-0.17376 -0.80147,-0.55821 -1.19026,-0.16942l-1.44221,1.44221a0.54083,0.54083 0 0 0 0,0.76672l12.11546,12.11546a0.543,0.543 0 0 0 0.76672,0l1.44221,-1.44221c0.38445,-0.38445 -0.10643,-0.88184 -0.30625,-1.30321c-0.73848,-1.52041 -1.40095,-3.56427 -0.16942,-4.7958l3.55992,-3.55992a18.27528,18.27528 0 0 1 2.46523,-0.55821c0.67115,-0.10643 0.75369,-0.02389 0.84926,-0.08688c0.58861,-0.37793 1.23804,-1.33579 0.5821,-1.99173" fill="#ffffff" fill-rule="evenodd" id="svg_1"/>
  <polygon transform="rotate(-45 14.7883 35.8648)" stroke="null" class="cls-2" points="20.596277236938477,32.8175106048584 17.835657119750977,30.056888580322266 8.98037874698639,41.25576400756836 9.397409200668335,41.672786712646484 20.596277236938477,32.8175106048584 20.596277236938477,32.8175106048584 " fill-rule="evenodd" fill="#888888" id="svg_2"/>
 </g>
</svg>